<?xml version="1.0" encoding="utf-8"?>
<!-- Generator: Adobe Illustrator 21.1.0, SVG Export Plug-In . SVG Version: 6.00 Build 0)  -->
<svg version="1.1" id="レイヤー_1" xmlns="http://www.w3.org/2000/svg" xmlns:xlink="http://www.w3.org/1999/xlink" x="0px"
	 y="0px" width="58.7px" height="58.7px" viewBox="0 0 58.7 58.7" style="enable-background:new 0 0 58.7 58.7;"
	 xml:space="preserve">
<style type="text/css">
	.st0{fill:#435255;}
	.st1{fill:#FFFFFF;}
	.st2{fill:none;stroke:#435255;stroke-width:2;stroke-miterlimit:10;}
	.st3{fill:none;stroke:#435255;stroke-linecap:round;stroke-linejoin:round;stroke-miterlimit:10;}
	.st4{fill:none;stroke:#435255;stroke-width:1.1129;stroke-miterlimit:10;}
</style>
<g>
	<g>
		<g>
			<rect x="31.2" y="16.6" class="st0" width="15.1" height="15.9"/>
			<rect x="31.2" y="42.6" class="st0" width="15.1" height="7"/>
			<rect x="31.2" y="33.5" class="st0" width="15.1" height="8.1"/>
		</g>
		<rect x="36.7" y="35.9" class="st1" width="4" height="1"/>
		<rect x="36.7" y="44.4" class="st1" width="4" height="1"/>
	</g>
	<line class="st0" x1="30.8" y1="33" x2="46.6" y2="33"/>
	<line class="st0" x1="30.8" y1="42.1" x2="46.6" y2="42.1"/>
	<rect x="38.1" y="20.6" class="st1" width="2.5" height="12"/>
	<rect x="41.6" y="20.6" class="st1" width="2.5" height="12"/>
	<line class="st0" x1="36.7" y1="36.4" x2="40.7" y2="36.4"/>
	<line class="st0" x1="36.7" y1="44.9" x2="40.7" y2="44.9"/>
	<circle class="st2" cx="29.3" cy="29.3" r="28.3"/>
	<line class="st3" x1="9.3" y1="49.6" x2="49.4" y2="49.6"/>
	<g>
		<rect x="12.4" y="38.9" class="st0" width="14.4" height="2.5"/>
		<polygon class="st0" points="13.9,42.5 15.3,49.6 23.9,49.6 25.3,42.5 		"/>
	</g>
	<path class="st4" d="M23.5,25.4c-2.2,3.9-3.8,14.4-3.8,14.4"/>
	<path class="st0" d="M20.7,29.7c-0.6-0.7-0.7-1.9,0-3.8s2.7-4.9,4.6-5.2c3.6-0.7,3.1-0.3,2.7,1.5c-0.4,1.7-1.1,0.5-1.4,3.7
		s-0.8,4.8-2.3,5.1c-1.5,0.3-3.2,0.4-3.2,0.4L20.7,29.7z"/>
	<path class="st4" d="M18.8,39.1c0,0,0-0.8-0.1-2c-0.2-1.9-0.7-4.8-1.8-6.8"/>
	<path class="st0" d="M17,32c0,0-3.2-7-4.7-8.3s0.4-1.8,1.1-0.6c0.7,1.3,2.5,1.1,3.1,1.4c0.6,0.3,2.5,2.1,2.5,3.8
		c0,1.7,0.8,2.4,0.1,3.5C18.4,32.8,17,32,17,32z"/>
	<path class="st4" d="M18.6,39.2c-0.4-0.7-2-5.9-4.3-6.1c-1.3-0.1-1,0.6-1.9,1.1"/>
	<path class="st0" d="M11.6,33.7c-0.7,1.7-1.1,2.3-1.1,2.9s0.7,1.5,1.6,0.3c0.9-1.1,1.5-1.8,2.3-2.6s2.6-1.1,0.7-1.7
		C13.2,32.1,11.6,33.7,11.6,33.7z"/>
</g>
</svg>
