<?xml version="1.0" encoding="utf-8"?>
<!-- Generator: Adobe Illustrator 21.1.0, SVG Export Plug-In . SVG Version: 6.00 Build 0)  -->
<svg version="1.1" id="レイヤー_1" xmlns="http://www.w3.org/2000/svg" xmlns:xlink="http://www.w3.org/1999/xlink" x="0px"
	 y="0px" width="58.7px" height="58.7px" viewBox="0 0 58.7 58.7" style="enable-background:new 0 0 58.7 58.7;"
	 xml:space="preserve">
<style type="text/css">
	.st0{fill:none;stroke:#435255;stroke-width:2;stroke-miterlimit:10;}
	.st1{fill:none;stroke:#000000;stroke-linecap:round;stroke-linejoin:round;stroke-miterlimit:10;}
	.st2{clip-path:url(#SVGID_2_);fill:#435255;}
</style>
<g>
	<circle class="st0" cx="29.3" cy="29.3" r="28.3"/>
	<g>
		<path class="st1" d="M39.1,13.6l-9.7,7.2l-9.7-7.2c-0.5-0.4-1.2,0-1.2,0.6v22.2c0,0.8,0.3,1.6,0.9,2.2l9.1,9.3
			c0.3,0.3,0.6,0.4,1,0.3c0.4,0,0.7-0.1,1-0.3l9.1-9.3c0.6-0.6,0.9-1.4,0.9-2.2V14.2C40.3,13.6,39.6,13.2,39.1,13.6z"/>
		<g>
			<defs>
				<path id="SVGID_1_" d="M39.1,13.6l-9.7,7.2l-9.7-7.2c-0.5-0.4-1.2,0-1.2,0.6v22.2c0,0.8,0.3,1.6,0.9,2.2l9.1,9.3
					c0.3,0.3,0.6,0.4,1,0.3c0.4,0,0.7-0.1,1-0.3l9.1-9.3c0.6-0.6,0.9-1.4,0.9-2.2V14.2C40.3,13.6,39.6,13.2,39.1,13.6z"/>
			</defs>
			<clipPath id="SVGID_2_">
				<use xlink:href="#SVGID_1_"  style="overflow:visible;"/>
			</clipPath>
			<polygon class="st2" points="52.5,50.5 29.2,50.8 29.2,7.3 52.5,7.1 			"/>
			<use xlink:href="#SVGID_1_"  style="overflow:visible;fill:none;stroke:#435255;stroke-width:1.5;stroke-miterlimit:10;"/>
		</g>
	</g>
</g>
</svg>
